<?xml version="1.0" standalone="no"?>
<!DOCTYPE svg PUBLIC "-//W3C//DTD SVG 1.1//EN" "http://www.w3.org/Graphics/SVG/1.1/DTD/svg11.dtd" >
<svg xmlns="http://www.w3.org/2000/svg">
<metadata></metadata>
<defs>
<font id="sansserifbookflfmedium" horiz-adv-x="1212" >
<font-face units-per-em="2048" ascent="1638" descent="-410" />
<missing-glyph horiz-adv-x="565" />
<glyph unicode="&#xfb01;" horiz-adv-x="794" d="M63 731v115h115v368q0 123 72.5 192t183.5 69q128 0 190 -69t62 -192v-47h-115v27q0 166 -137 166q-69 0 -105 -37t-36 -104v-373h201v-115h-201v-731h-115v731h-115zM565 0v846h115v-846h-115z" />
<glyph unicode="&#xfb02;" horiz-adv-x="786" d="M63 731v115h115v416q0 91 72 152t180 61q111 0 180.5 -60.5t69.5 -152.5v-1262h-115v1227q0 133 -135 133q-68 0 -102.5 -35t-34.5 -96v-383h201v-115h-201v-731h-115v731h-115z" />
<glyph horiz-adv-x="0" />
<glyph horiz-adv-x="682" />
<glyph unicode=" "  horiz-adv-x="565" />
<glyph unicode="&#x09;" horiz-adv-x="565" />
<glyph unicode="&#xa0;" horiz-adv-x="565" />
<glyph unicode="!" horiz-adv-x="407" d="M123 68q0 35 25.5 60.5t60.5 25.5t60.5 -25.5t25.5 -60.5t-25.5 -60.5t-60.5 -25.5t-60.5 25.5t-25.5 60.5zM145 303v1159h127v-1159h-127z" />
<glyph unicode="&#x22;" horiz-adv-x="616" d="M135 1489h105l-21 -328h-61zM387 1489h105l-21 -328h-63z" />
<glyph unicode="#" horiz-adv-x="1107" d="M115 711l20 63h219l60 234h-228l17 61h225l61 246h62l-62 -246h222l61 246h62l-62 -246h229l-16 -61h-229l-58 -234h228l-15 -63h-229l-64 -256h-61l64 256h-222l-61 -246h-62l62 246h-223zM416 774h221l57 234h-219z" />
<glyph unicode="$" horiz-adv-x="970" d="M49 297l119 47q23 -91 93.5 -153.5t182.5 -73.5v657q-14 8 -41 24q-45 26 -66.5 39t-57.5 37t-53.5 40.5t-40.5 42.5t-33.5 50.5t-18.5 57t-8 68.5q0 136 90 227t229 106v111h115v-111q198 -19 285 -209l-113 -55q-52 115 -172 139v-489q44 -26 74 -45t77.5 -54t80 -70.5 t64.5 -81t48.5 -100t16.5 -114.5q0 -177 -97 -281.5t-264 -115.5v-115h-115v115q-155 15 -259 98.5t-136 208.5zM250 1130q0 -27 9 -51.5t20 -41t35 -36.5t38.5 -30t46.5 -30t45 -28v428q-90 -14 -142 -69.5t-52 -141.5zM559 115q112 7 174 79t62 193q0 57 -21.5 107.5 t-61.5 91.5t-73 67t-80 56v-594z" />
<glyph unicode="%" horiz-adv-x="1187" d="M57 1169q0 115 80.5 196t194.5 81q115 0 195.5 -80.5t80.5 -196.5q0 -112 -81 -192t-195 -80q-113 0 -194 80t-81 192zM150 0l794 1462h105l-795 -1462h-104zM162 1169q0 -70 49.5 -119t120.5 -49t121.5 49t50.5 119q0 71 -51 121.5t-121 50.5t-120 -50.5t-50 -121.5z M582 287q0 114 80 194t194 80q115 0 196 -80t81 -194q0 -115 -80.5 -195t-196.5 -80q-114 0 -194 80t-80 195zM686 287q0 -71 50 -120.5t120 -49.5q71 0 121.5 50t50.5 120t-50.5 120t-121.5 50q-70 0 -120 -49.5t-50 -120.5z" />
<glyph unicode="&#x26;" horiz-adv-x="1161" d="M47 346q0 72 26 136t79.5 121.5t105.5 99.5t133 98l-80 117q-39 60 -58.5 116t-19.5 129q0 125 94 214t232 89q134 0 232 -81t98 -207q0 -103 -51.5 -179.5t-149.5 -142.5l-127 -86l279 -422l223 162l74 -102l-228 -164l158 -244h-149l-111 170q-127 -90 -172 -116 q-114 -62 -242 -62q-153 0 -249.5 95.5t-96.5 258.5zM174 346q0 -103 63 -166t156 -63q71 0 149.5 38t192.5 121l-276 420q-43 -30 -60 -42t-52.5 -38t-50.5 -40t-40 -38.5t-36 -43t-24 -43.5t-17.5 -50.5t-4.5 -54.5zM360 1163q0 -86 60 -178l74 -111l116 82q53 38 82 65.5 t49.5 67.5t20.5 89q0 66 -57 114.5t-146 48.5q-92 0 -145.5 -51t-53.5 -127z" />
<glyph unicode="'" horiz-adv-x="366" d="M135 1489h105l-21 -328h-61z" />
<glyph unicode="(" horiz-adv-x="401" d="M86 709q0 421 121 835h125q-64 -214 -92.5 -443.5t-28.5 -391.5q0 -428 121 -836h-125q-121 414 -121 836z" />
<glyph unicode=")" horiz-adv-x="401" d="M82 -127q64 214 92.5 443.5t28.5 392.5q0 427 -121 835h125q121 -414 121 -835q0 -422 -121 -836h-125z" />
<glyph unicode="*" horiz-adv-x="473" d="M63 1165q0 49 158 80q-158 30 -158 80q0 15 9.5 27t25.5 12q44 0 131 -107q-26 79 -26 125q0 58 39 58q37 0 37 -49q0 -47 -33 -134q5 5 19.5 20.5t20.5 21.5t18.5 18t20 17l18 12t20 9.5t18.5 2.5q16 0 26.5 -10t10.5 -27q0 -16 -15 -29t-43 -22t-50.5 -14t-55.5 -11 q62 -7 113 -27t51 -49q0 -14 -10 -25t-27 -11q-20 0 -49 20.5t-43 34.5t-43 45q33 -86 33 -133q0 -49 -37 -49q-39 0 -39 57q0 13 1 24.5t4.5 25.5l5.5 22t7.5 26.5t7.5 26.5q-86 -107 -131 -107q-15 0 -25 11t-10 28z" />
<glyph unicode="+" horiz-adv-x="774" d="M127 500v104h209v199h104v-199h209v-104h-209v-209h-104v209h-209z" />
<glyph unicode="," horiz-adv-x="354" d="M20 -244l185 385l92 -41l-227 -374z" />
<glyph unicode="-" horiz-adv-x="626" d="M102 500v104h422v-104h-422z" />
<glyph unicode="." horiz-adv-x="376" d="M94 80q0 38 28 66t66 28t66.5 -28t28.5 -66t-28.5 -66t-66.5 -28t-66 28t-28 66z" />
<glyph unicode="/" horiz-adv-x="575" d="M47 0l420 1462h104l-419 -1462h-105z" />
<glyph unicode="0" d="M59 731q0 140 34 270.5t99.5 238.5t172.5 173.5t241 65.5q108 0 199 -43t153.5 -116t107 -169.5t65 -202.5t20.5 -217q0 -92 -14 -181t-41.5 -173.5t-73 -156t-104 -125.5t-138.5 -84.5t-174 -30.5q-111 0 -203.5 43.5t-155 116.5t-106 170.5t-63 203.5t-19.5 217z M186 731q0 -91 15.5 -179t49.5 -169.5t82 -143t118.5 -98.5t154.5 -37t154.5 37t118.5 98.5t82 143t49.5 169.5t15.5 179q0 90 -15.5 177.5t-49.5 168.5t-82 142.5t-118.5 98t-154.5 36.5t-154.5 -36.5t-118.5 -98t-82 -142.5t-49.5 -168.5t-15.5 -177.5z" />
<glyph unicode="1" d="M375 1337l53 125h291v-1462h-125v1337h-219z" />
<glyph unicode="2" d="M145 0l539 635q45 54 75.5 96t65 101.5t52.5 124t18 130.5q0 118 -80.5 192.5t-208.5 74.5q-131 0 -208.5 -67t-94.5 -159h-125q12 70 43 130.5t81.5 111t128.5 80t175 29.5q182 0 298 -109t116 -283q0 -81 -18 -154.5t-54 -140.5t-73.5 -119.5t-92.5 -117.5l-360 -430 h608v-125h-885z" />
<glyph unicode="3" d="M193 309h124q17 -94 92 -147t195 -53q115 0 197 88.5t82 218.5q0 76 -26 137t-67.5 97t-89 54.5t-94.5 18.5h-76v125h76q45 0 90 15.5t86 46t66.5 83.5t25.5 119q0 109 -79.5 176.5t-190.5 67.5q-113 0 -184 -59t-84 -148h-127q11 142 116.5 237t278.5 95 q172 0 283.5 -105.5t111.5 -263.5q0 -126 -58.5 -210t-154.5 -116q98 -33 160 -128.5t62 -241.5q0 -182 -116.5 -307t-287.5 -125q-177 0 -284 86t-127 239z" />
<glyph unicode="4" d="M113 279l837 1204v-1080h131v-124h-131v-279h-125v279h-712zM346 403h479v699z" />
<glyph unicode="5" d="M115 289l104 57q108 -242 371 -242q173 0 284 112t111 298q0 78 -25.5 146.5t-73.5 121.5t-122.5 84t-167.5 31q-73 0 -136.5 -12t-97.5 -24.5t-79 -33.5l170 635h555v-125h-465l-92 -336q82 21 145 21q231 0 372.5 -143t141.5 -365q0 -117 -40.5 -217t-110 -169.5 t-165.5 -108.5t-204 -39q-75 0 -139.5 13.5t-111.5 38.5t-83.5 53.5t-64 66.5t-44.5 69t-32 68z" />
<glyph unicode="6" d="M109 471q0 175 90 334l366 657h125l-309 -565q91 61 235 61q224 0 368 -138t144 -349q0 -136 -62 -250t-180 -183t-268 -69q-233 0 -371 141t-138 361zM233 471q0 -166 108 -271.5t277 -105.5q170 0 278 105t108 272q0 155 -111 259t-277 104q-168 0 -275.5 -103.5 t-107.5 -259.5z" />
<glyph unicode="7" d="M106 0l818 1337h-809v125h1028l-893 -1462h-144z" />
<glyph unicode="8" d="M188 379q0 69 19.5 129t48.5 100.5t67.5 73t71 50t64.5 28.5q-41 18 -77.5 45t-71.5 68.5t-56 101.5t-21 131q0 159 108 263t269 104t270 -104t109 -263q0 -74 -22 -135t-58.5 -102t-73 -67t-77.5 -42q34 -11 68 -28.5t73.5 -50t69 -73t49.5 -100.5t20 -129 q0 -182 -120.5 -299t-303.5 -117t-304.5 117t-121.5 299zM307 379q0 -131 87 -214t220 -83t220.5 83t87.5 214q0 132 -87.5 215.5t-220.5 83.5q-132 0 -219.5 -84.5t-87.5 -214.5zM352 1106q0 -114 72 -188t186 -74q113 0 187.5 74t74.5 188q0 112 -74.5 186t-187.5 74 t-185.5 -73.5t-72.5 -186.5z" />
<glyph unicode="9" d="M92 981q0 135 62 248.5t180 182.5t268 69q233 0 371.5 -141t138.5 -359q0 -177 -90 -336l-365 -647h-125l308 555q-92 -61 -236 -61q-225 0 -368.5 138.5t-143.5 350.5zM217 981q0 -156 111 -260.5t276 -104.5q167 0 275 104t108 261q0 164 -108 269.5t-277 105.5 q-170 0 -277.5 -104.5t-107.5 -270.5z" />
<glyph unicode=":" horiz-adv-x="417" d="M119 80q0 38 28 66t66 28q39 0 66.5 -27.5t27.5 -66.5q0 -40 -27 -67t-67 -27q-39 0 -66.5 27.5t-27.5 66.5zM119 647q0 39 27.5 66.5t66.5 27.5q40 0 67 -27t27 -67q0 -39 -27.5 -66.5t-66.5 -27.5q-38 0 -66 28t-28 66z" />
<glyph unicode=";" horiz-adv-x="417" d="M63 -244l183 385l92 -41l-227 -374zM145 647q0 39 28 66.5t67 27.5q40 0 67 -27t27 -67q0 -39 -27.5 -66.5t-66.5 -27.5q-38 0 -66.5 28t-28.5 66z" />
<glyph unicode="&#x3c;" horiz-adv-x="647" d="M94 522l443 314v-115l-279 -199l279 -198v-115z" />
<glyph unicode="=" horiz-adv-x="651" d="M100 352v105h465v-105h-465zM100 625v104h465v-104h-465z" />
<glyph unicode="&#x3e;" horiz-adv-x="647" d="M135 209v115l281 198l-281 199v115l445 -314z" />
<glyph unicode="?" horiz-adv-x="929" d="M84 1210q128 273 410 273q180 0 280 -87.5t100 -232.5q0 -46 -14.5 -88.5t-33.5 -72.5t-57.5 -67t-64 -57.5t-75.5 -58.5q-168 -126 -213 -177t-45 -126q0 -35 25.5 -58.5t62.5 -23.5q72 0 110 35l64 -92q-82 -66 -182 -66q-86 0 -146.5 55t-60.5 150q0 42 14.5 81t35 70 t67.5 74.5t86 75t116 90.5q34 26 52.5 40.5t48 42.5t45 51t27.5 55.5t12 66.5q0 88 -67.5 141.5t-186.5 53.5q-211 0 -310 -211zM369 63q0 34 25 59t59 25q35 0 60.5 -25t25.5 -59q0 -35 -25 -59t-61 -24q-34 0 -59 24t-25 59z" />
<glyph unicode="@" horiz-adv-x="1220" d="M76 817q0 98 37.5 191t104.5 166.5t170 118t224 44.5t224 -43t170.5 -113t105 -158.5t37.5 -180.5q0 -52 -11 -103t-34.5 -100.5t-69.5 -80t-108 -30.5q-63 0 -97 40t-34 96q-24 -51 -82 -93.5t-154 -42.5q-114 0 -174.5 72.5t-60.5 183.5q0 115 77.5 195t198.5 80 q169 0 215 -144l10 132h39l-26 -326q-4 -150 96 -150q44 0 79 26.5t54.5 68.5t30 87.5t10.5 88.5q0 85 -35 166.5t-98 145.5t-157.5 103t-205.5 39t-205.5 -41t-157 -108.5t-97.5 -153.5t-35 -176q0 -74 19.5 -143.5t60 -131t98.5 -108t140 -73.5t179 -27q99 0 196.5 34 t133.5 78l31 -30q-37 -47 -143 -85t-222 -38q-130 0 -234.5 44.5t-168.5 119t-97.5 167t-33.5 193.5zM367 784q0 -92 47.5 -152.5t144.5 -60.5q76 0 130.5 37.5t78 91t23.5 115.5q0 83 -51.5 143t-139.5 60q-102 0 -167.5 -70t-65.5 -164z" />
<glyph unicode="A" horiz-adv-x="1296" d="M63 0l584 1509l586 -1509h-125l-156 397h-610l-154 -397h-125zM393 522h512l-258 660z" />
<glyph unicode="B" horiz-adv-x="1157" d="M156 0v1462h356q179 0 278 -100.5t99 -257.5q0 -195 -148 -275q138 -19 235 -129t97 -266q0 -182 -129.5 -308t-331.5 -126h-456zM281 125h333q143 0 238.5 87.5t95.5 221.5t-95.5 221.5t-238.5 87.5h-333v-618zM281 868h249q104 0 168 65.5t64 170.5t-62 169t-170 64 h-249v-469z" />
<glyph unicode="C" horiz-adv-x="1439" d="M84 727q0 222 99 394.5t264.5 264t367.5 91.5q108 0 187 -8.5t142 -30.5t98.5 -40t98.5 -55v-145q-75 43 -116 63.5t-107.5 45.5t-138.5 35t-164 10q-116 0 -223.5 -43.5t-191 -121.5t-133.5 -198t-50 -262q0 -144 50 -264t133.5 -197t190.5 -119.5t224 -42.5 q99 0 179.5 13.5t144.5 41t106 52.5t96 65v-139q-45 -31 -67 -45t-74 -40t-99 -38.5t-122.5 -23t-163.5 -10.5q-151 0 -284.5 53t-232.5 148t-156.5 236.5t-57.5 309.5z" />
<glyph unicode="D" horiz-adv-x="1404" d="M162 0v1462h487q136 0 256.5 -54.5t208 -150t138.5 -232t51 -294.5t-51 -294.5t-138.5 -232t-208 -150t-256.5 -54.5h-487zM287 125h325q247 0 405.5 167.5t158.5 438.5q0 272 -158.5 439t-405.5 167h-325v-1212z" />
<glyph unicode="E" horiz-adv-x="980" d="M158 0v1462h700v-125h-575v-463h575v-126h-575v-623h575v-125h-700z" />
<glyph unicode="F" horiz-adv-x="958" d="M162 0v1462h635v-125h-510v-471h510v-125h-510v-741h-125z" />
<glyph unicode="G" horiz-adv-x="1665" d="M96 729q0 127 37 242.5t105 207.5t160 159.5t207 104t241 36.5q112 0 213 -27t175 -73t127 -94.5t91 -102.5l-100 -78q-77 108 -207 179t-299 71q-175 0 -318 -81.5t-225 -225t-82 -318.5q0 -174 82 -317.5t225.5 -225.5t317.5 -82q127 0 238.5 43t188.5 113.5t125.5 159 t59.5 182.5h-442v125h581q0 -150 -55 -286.5t-151.5 -238.5t-238.5 -162t-306 -60q-159 0 -298.5 57t-238.5 156t-156 238t-57 298z" />
<glyph unicode="H" horiz-adv-x="1263" d="M150 0v1462h126v-596h719v596h125v-1462h-125v741h-719v-741h-126z" />
<glyph unicode="I" horiz-adv-x="466" d="M170 0v1462h125v-1462h-125z" />
<glyph unicode="J" horiz-adv-x="724" d="M86 117l94 82q26 -47 53 -68.5t76 -21.5q36 0 61.5 8.5t48.5 32.5t34.5 72.5t11.5 121.5v1118h125v-1118q0 -178 -67.5 -269t-211.5 -91q-143 0 -225 133z" />
<glyph unicode="K" horiz-adv-x="1112" d="M170 0v1462h125v-602l600 602h166l-639 -639l620 -823h-143l-561 741l-43 -45v-696h-125z" />
<glyph unicode="L" horiz-adv-x="759" d="M162 0v1462h125v-1337h368v-125h-493z" />
<glyph unicode="M" horiz-adv-x="1855" d="M66 0l380 1497l492 -1216l492 1216l382 -1497h-126l-283 1116l-465 -1145l-463 1145l-285 -1116h-124z" />
<glyph unicode="N" horiz-adv-x="1470" d="M162 0v1473l1050 -1176v1163h125v-1487l-1050 1176v-1149h-125z" />
<glyph unicode="O" horiz-adv-x="1693" d="M94 729q0 209 98.5 381t270.5 270.5t381 98.5q156 0 295.5 -58t239.5 -157.5t158 -239t58 -295.5t-58 -295.5t-158 -238.5t-239.5 -157t-295.5 -58t-295.5 58t-239 157t-157.5 238.5t-58 295.5zM219 729q0 -132 47.5 -248t130.5 -199t199 -130.5t248 -47.5q177 0 320 81 t223.5 224t80.5 320q0 178 -80.5 321t-223 223.5t-320.5 80.5q-132 0 -248 -47.5t-199 -130t-130.5 -198.5t-47.5 -249z" />
<glyph unicode="P" horiz-adv-x="985" d="M150 0v1462h358q179 0 288 -102.5t109 -261.5t-109 -263t-288 -104h-232v-731h-126zM276 856h232q122 0 197 68.5t75 173.5q0 103 -75 171t-197 68h-232v-481z" />
<glyph unicode="Q" horiz-adv-x="1671" d="M94 729q0 209 98.5 381t270.5 270.5t381 98.5q156 0 295.5 -58t239.5 -157.5t158 -239t58 -295.5q0 -169 -67 -316t-187 -251l162 -162h-147l-99 98q-182 -118 -413 -118q-156 0 -295.5 58t-239 157t-157.5 238.5t-58 295.5zM219 729q0 -132 47.5 -248t130.5 -199 t199 -130.5t248 -47.5q174 0 323 84l-368 369h149l307 -307q101 84 157 208t56 271q0 178 -80.5 321t-223 223.5t-320.5 80.5q-132 0 -248 -47.5t-199 -130t-130.5 -198.5t-47.5 -249z" />
<glyph unicode="R" horiz-adv-x="1013" d="M150 0v1462h358q179 0 288 -102.5t109 -261.5t-110.5 -263t-286.5 -104h-39l469 -731h-147l-463 731h-52v-731h-126zM276 856h232q122 0 197 68.5t75 173.5q0 103 -75 171t-197 68h-232v-481z" />
<glyph unicode="S" horiz-adv-x="1007" d="M76 293l114 51q93 -231 345 -231q126 0 205 74.5t79 189.5q0 30 -6.5 58.5t-14 51t-26 47t-31 41t-39.5 38.5t-41.5 33.5t-48 33t-46.5 29.5t-50 30q-26 15 -69.5 40t-68.5 39t-60.5 37.5t-56.5 42t-45 45t-36.5 53.5t-21 62t-8.5 75q0 149 101.5 243t264.5 94 q235 0 352 -213l-112 -55q-42 72 -98.5 108t-141.5 36q-115 0 -177.5 -58t-62.5 -155q0 -17 4 -33.5t9 -30t17.5 -29t20.5 -25.5t27 -25t29 -22.5t34.5 -22.5t34.5 -21t38.5 -22.5t37.5 -22.5q159 -94 224 -145q180 -144 191 -329q1 -14 1 -28q0 -168 -112.5 -278.5 t-296.5 -110.5q-178 0 -287.5 80.5t-171.5 224.5z" />
<glyph unicode="T" horiz-adv-x="874" d="M84 1337v125h731v-125h-301v-1337h-125v1337h-305z" />
<glyph unicode="U" horiz-adv-x="1146" d="M150 401v1061h126v-1077q0 -141 85 -216t214 -75q128 0 213.5 75t85.5 216v1077h125v-1061q0 -201 -119 -315.5t-305 -114.5t-305.5 115.5t-119.5 314.5z" />
<glyph unicode="V" horiz-adv-x="1069" d="M70 1462h133l340 -1091l344 1091h133l-477 -1482z" />
<glyph unicode="W" horiz-adv-x="1781" d="M59 1462h129l340 -1079l367 1100l373 -1098l334 1077h129l-471 -1482l-365 1136l-367 -1136z" />
<glyph unicode="X" horiz-adv-x="1144" d="M47 0l447 735l-435 727h144l370 -610l371 610h152l-449 -737l438 -725h-149l-367 614l-372 -614h-150z" />
<glyph unicode="Y" horiz-adv-x="1021" d="M53 1462h129l332 -600l334 600h131l-404 -721v-741h-124v741z" />
<glyph unicode="Z" horiz-adv-x="1142" d="M80 0l768 1337h-719v125h924l-752 -1337h752v-125h-973z" />
<glyph unicode="[" horiz-adv-x="477" d="M121 -94v1640h264v-71h-139v-1500h145v-69h-270z" />
<glyph unicode="\" horiz-adv-x="575" d="M47 1483h82l418 -1536h-80z" />
<glyph unicode="]" horiz-adv-x="477" d="M111 -25h143v1500h-137v71h264v-1640h-270v69z" />
<glyph unicode="^" horiz-adv-x="720" d="M104 842l230 516h63l230 -516h-52l-208 356l-211 -356h-52z" />
<glyph unicode="_" horiz-adv-x="731" d="M0 -53h752v-72h-752v72z" />
<glyph unicode="`" horiz-adv-x="585" d="M141 1239l60 59l272 -272l-59 -59z" />
<glyph unicode="a" horiz-adv-x="1107" d="M94 422q0 119 58.5 220t159.5 159.5t220 58.5q94 0 178.5 -38t145.5 -105v129h115v-846h-115v127q-61 -67 -145 -105t-179 -38q-119 0 -220 58.5t-159.5 159.5t-58.5 220zM211 420q0 -134 95.5 -229t228.5 -95t228 95t95 229t-95 228.5t-228 94.5q-134 0 -229 -95 t-95 -228z" />
<glyph unicode="b" horiz-adv-x="1064" d="M119 0v1516h114v-801q61 68 145.5 106.5t180.5 38.5q181 0 309.5 -128t128.5 -310t-128.5 -310t-309.5 -128q-96 0 -180.5 38.5t-145.5 106.5v-129h-114zM236 420q0 -134 95 -229t228 -95t228.5 95t95.5 229q0 133 -95 228t-229 95q-133 0 -228 -94.5t-95 -228.5z" />
<glyph unicode="c" horiz-adv-x="890" d="M94 422q0 192 123.5 315t314.5 123q85 0 144 -19.5t123 -58.5v-147q-124 108 -267 108q-138 0 -229.5 -91.5t-91.5 -229.5t91.5 -230t229.5 -92q146 0 267 113v-150q-106 -79 -267 -79q-190 0 -314 124t-124 314z" />
<glyph unicode="d" horiz-adv-x="1064" d="M80 422q0 119 58.5 220t159.5 159.5t220 58.5q96 0 180.5 -38.5t145.5 -106.5v801h114v-1516h-114v129q-61 -68 -145.5 -106.5t-180.5 -38.5q-119 0 -220 58.5t-159.5 159.5t-58.5 220zM195 420q0 -134 95 -229t228 -95q134 0 229 95t95 229q0 133 -95 228t-229 95 t-228.5 -94.5t-94.5 -228.5z" />
<glyph unicode="e" horiz-adv-x="1011" d="M76 422q0 192 123.5 315t314.5 123q104 0 189 -37.5t138.5 -99.5t82 -138t28.5 -157q0 -57 -20 -57h-735q16 -114 100.5 -192.5t216.5 -78.5q179 0 279 154l102 -61q-51 -89 -149.5 -149t-231.5 -60q-190 0 -314 124t-124 314zM199 481h628q-5 44 -27 88.5t-59.5 84 t-97 64.5t-129.5 25q-74 0 -135 -26t-98.5 -67t-58.5 -85t-23 -84z" />
<glyph unicode="f" horiz-adv-x="585" d="M63 731v115h115v491q0 83 46 137t136 54q66 0 127 -17v-110q-58 20 -96 20q-49 0 -73.5 -21.5t-24.5 -82.5v-471h201v-115h-201v-731h-115v731h-115z" />
<glyph unicode="g" horiz-adv-x="1087" d="M96 422q0 181 128.5 309.5t310.5 128.5q95 0 179.5 -38t145.5 -107v131h117v-826q0 -198 -117 -307.5t-311 -109.5q-172 0 -287.5 77t-126.5 195h115q13 -66 91.5 -112t207.5 -46q152 0 231.5 78t79.5 225v109q-61 -69 -145.5 -107t-179.5 -38q-182 0 -310.5 128.5 t-128.5 309.5zM211 420q0 -134 95.5 -229t228.5 -95t228 95t95 229t-95 228.5t-228 94.5q-134 0 -229 -95t-95 -228z" />
<glyph unicode="h" horiz-adv-x="933" d="M129 0v1516h115v-793q75 133 243 133q166 0 253 -96.5t87 -245.5v-516h-114v510q0 45 -11.5 84.5t-36.5 74t-70 54.5t-106 20q-112 0 -178.5 -66t-66.5 -149v-526h-115z" />
<glyph unicode="i" horiz-adv-x="403" d="M133 1065q0 30 21 51t51 21q29 0 50 -20.5t21 -51.5q0 -29 -21 -49.5t-50 -20.5t-50.5 20.5t-21.5 49.5zM147 0v846h117v-846h-117z" />
<glyph unicode="j" horiz-adv-x="403" d="M133 1065q0 30 21 51t51 21q29 0 50 -20.5t21 -51.5q0 -29 -21 -49.5t-50 -20.5t-50.5 20.5t-21.5 49.5zM147 -387v1233h117v-1233h-117z" />
<glyph unicode="k" horiz-adv-x="882" d="M139 0v1516h115v-1000l332 330h149l-370 -367l477 -479h-164l-393 393l-31 -26v-367h-115z" />
<glyph unicode="l" horiz-adv-x="403" d="M150 0v1516h116v-1516h-116z" />
<glyph unicode="m" horiz-adv-x="1374" d="M152 0v846h116v-101q18 48 68 82.5t133 34.5q102 0 157.5 -37.5t82.5 -105.5q69 145 247 145q140 0 220.5 -78t80.5 -198v-588h-114v557q0 86 -44.5 139.5t-142.5 53.5q-96 0 -145 -57t-49 -136v-557h-115v557q0 82 -42 137.5t-136 55.5q-97 0 -149 -57.5t-52 -135.5 v-557h-116z" />
<glyph unicode="n" horiz-adv-x="1003" d="M158 0v846h114v-119q23 53 87 90t161 37q172 0 262 -94.5t90 -247.5v-514h-116v475q0 126 -58.5 196t-177.5 70q-125 0 -186.5 -75.5t-61.5 -182.5v-481h-114z" />
<glyph unicode="o" horiz-adv-x="1026" d="M76 422q0 119 58.5 220t159.5 159.5t220 58.5t220 -58.5t159.5 -159.5t58.5 -220t-58.5 -220t-159.5 -159.5t-220 -58.5t-220 58.5t-159.5 159.5t-58.5 220zM190 420q0 -134 95 -229t229 -95t229 95t95 229q0 133 -95 228t-229 95t-229 -95t-95 -228z" />
<glyph unicode="p" horiz-adv-x="1099" d="M143 -401v1247h115v-135q62 69 147.5 109t182.5 40q119 0 220 -58.5t159.5 -159.5t58.5 -220t-58.5 -220t-159.5 -159.5t-220 -58.5q-96 0 -182.5 40.5t-147.5 110.5v-536h-115zM264 420q0 -134 95 -229t229 -95q133 0 228 95t95 229t-94.5 228.5t-228.5 94.5t-229 -95 t-95 -228z" />
<glyph unicode="q" horiz-adv-x="1097" d="M78 422q0 119 58.5 220t159.5 159.5t220 58.5q97 0 182.5 -40t147.5 -109v135h115v-1247h-115v536q-61 -70 -147.5 -110.5t-182.5 -40.5q-119 0 -220 58.5t-159.5 159.5t-58.5 220zM193 420q0 -134 95 -229t228 -95q134 0 229 95t95 229q0 133 -95 228t-229 95 t-228.5 -94.5t-94.5 -228.5z" />
<glyph unicode="r" horiz-adv-x="684" d="M129 0v846h115v-92q20 43 63 72.5t101 29.5q121 0 194 -70l-55 -86q-26 21 -54 31t-81 10q-68 0 -118 -49t-50 -102v-590h-115z" />
<glyph unicode="s" horiz-adv-x="702" d="M63 141l97 60q34 -50 78.5 -74.5t121.5 -24.5q75 0 129 39t54 101q0 32 -14.5 56t-46 42.5t-62 30.5t-80.5 28q-45 13 -72.5 23.5t-62 29.5t-53.5 41.5t-32.5 57.5t-13.5 80q0 100 77.5 163.5t197.5 63.5q93 0 153.5 -32t108.5 -91l-92 -67q-30 35 -68 55t-102 20 q-80 0 -120 -29.5t-40 -82.5q0 -44 40 -74t118 -51q132 -37 205 -100t73 -164q0 -116 -86.5 -185t-210.5 -69q-199 0 -297 153z" />
<glyph unicode="t" horiz-adv-x="565" d="M63 731v115h115v371h115v-371h199v-115h-199v-731h-115v731h-115z" />
<glyph unicode="u" horiz-adv-x="878" d="M125 317v529h115v-510q0 -125 47.5 -183.5t150.5 -58.5q104 0 151.5 58.5t47.5 183.5v510h115v-529q0 -161 -83.5 -247t-230.5 -86t-230 86t-83 247z" />
<glyph unicode="v" horiz-adv-x="888" d="M47 846h121l278 -623l281 623h119l-400 -881z" />
<glyph unicode="w" horiz-adv-x="1400" d="M43 846h113l272 -621l283 647l282 -647l273 621h112l-385 -877l-282 641l-283 -641z" />
<glyph unicode="x" horiz-adv-x="784" d="M63 0l277 424l-272 422h118l217 -334l218 334h118l-276 -426l272 -420h-119l-217 334l-217 -334h-119z" />
<glyph unicode="y" horiz-adv-x="897" d="M57 846h129l308 -572l260 572h120l-557 -1223h-120l237 522z" />
<glyph unicode="z" horiz-adv-x="905" d="M86 0l512 731h-496v115h717l-514 -731h500v-115h-719z" />
<glyph unicode="{" horiz-adv-x="458" d="M37 727q29 29 45.5 49.5t31.5 57t15 77.5v375q0 136 64.5 210.5t218.5 74.5v-105q-103 0 -141 -40t-38 -140v-375q0 -61 -22 -102.5t-66 -81.5q88 -88 88 -184v-432q0 -93 39 -133.5t140 -40.5v-105q-161 0 -222 67t-61 212v432q0 88 -92 184z" />
<glyph unicode="|" horiz-adv-x="313" d="M111 -94v1640h104v-1640h-104z" />
<glyph unicode="}" horiz-adv-x="458" d="M72 -63q101 0 139.5 40.5t38.5 133.5v432q0 96 88 184q-44 40 -66 81.5t-22 102.5v375q0 100 -38 140t-140 40v105q154 0 218 -74.5t64 -210.5v-375q0 -41 15 -77.5t31.5 -57t45.5 -49.5q-92 -96 -92 -184v-432q0 -145 -60.5 -212t-221.5 -67v105z" />
<glyph unicode="~" horiz-adv-x="907" d="M66 758q103 90 235 90q72 0 148 -35q93 -39 161 -39q62 0 99 15.5t92 54.5l53 -72q-111 -90 -240 -90q-96 0 -180 35q-4 2 -14.5 7t-15.5 7t-15.5 6.5t-17 7t-16.5 5.5t-17.5 4.5t-17.5 2.5t-19 1q-90 0 -178 -68z" />
<glyph unicode="&#xa1;" horiz-adv-x="407" d="M117 1198q0 35 25.5 60.5t60.5 25.5t60.5 -25.5t25.5 -60.5t-25.5 -60.5t-60.5 -25.5t-60.5 25.5t-25.5 60.5zM139 -197v1160h127v-1160h-127z" />
<glyph unicode="&#xa2;" horiz-adv-x="845" d="M68 690q0 155 96 273.5t268 142.5v117h115v-115q123 -13 207 -74v-133q-87 79 -207 90v-596q130 9 207 86v-133q-92 -62 -207 -69v-111h-115v113q-90 11 -161 50t-114.5 96t-66 124t-22.5 139zM203 690q0 -108 60.5 -191.5t168.5 -101.5v594q-111 -25 -170 -110t-59 -191 z" />
<glyph unicode="&#xa3;" horiz-adv-x="1003" d="M82 109q34 46 93.5 71t111.5 27q166 144 166 293h-217v125h213q-7 32 -27.5 69.5t-39.5 62.5t-56.5 71t-53.5 67q-104 139 -104 254q0 140 97.5 232t246.5 92q161 0 264 -74.5t103 -220.5h-127q-11 170 -236 170q-108 0 -165.5 -52t-57.5 -145q0 -55 26.5 -108.5 t83.5 -124.5q92 -117 124 -174q35 -64 48 -119h234v-125h-229q0 -75 -45 -164.5t-105 -130.5q57 -12 109 -45q34 -23 67 -35t86 -12q49 0 98 23.5t84 60.5l62 -97q-41 -45 -107 -78.5t-135 -33.5q-98 0 -186 43q-3 2 -12 7.5t-12 7.5t-12 6.5l-13 6.5t-13.5 6t-16 5.5 t-16.5 3.5t-19.5 3t-22 2t-25.5 1q-123 0 -203 -82z" />
<glyph unicode="&#xa4;" horiz-adv-x="956" d="M63 731v115h115v420q0 96 67 155.5t177 59.5q140 0 186 -72q25 45 74.5 77t118.5 32q75 0 114 -13v-114q-28 12 -90 12q-135 0 -135 -137v-420h201v-115h-201v-731h-115v731h-282v-731h-115v731h-115zM293 846h282v393q0 47 -41.5 92t-111.5 45q-59 0 -94 -36t-35 -91 v-403z" />
<glyph unicode="&#xa5;" horiz-adv-x="987" d="M35 1462h131l334 -596l334 596h129l-408 -721h209v-104h-209v-105h209v-104h-209v-428h-123v428h-209v104h209v105h-209v104h209z" />
<glyph unicode="&#xa6;" horiz-adv-x="319" d="M111 0v670h102v-670h-102zM111 893v653h102v-653h-102z" />
<glyph unicode="&#xa7;" horiz-adv-x="800" d="M68 680q0 214 196 307q-151 72 -151 248q0 109 74 188.5t200 79.5q101 0 175.5 -51t109.5 -127l-70 -53q-30 60 -84 102.5t-131 42.5q-86 0 -135 -54t-49 -124q0 -84 51.5 -139t146.5 -70q143 -22 236.5 -116t93.5 -226q0 -57 -14.5 -105.5t-33 -77.5t-48 -55t-46.5 -36 t-42 -23q145 -103 145 -282q0 -117 -84.5 -197t-220.5 -80q-117 0 -193 62.5t-106 150.5l80 39q21 -70 77.5 -118t141.5 -48q96 0 152.5 55t56.5 136q0 92 -57.5 165t-161.5 86q-82 10 -150.5 49t-113.5 110t-45 161zM166 692q0 -107 70.5 -167t164.5 -60q109 0 171.5 58 t62.5 157q0 103 -67 170.5t-185 67.5q-55 0 -98.5 -21.5t-68.5 -56t-37.5 -72.5t-12.5 -76z" />
<glyph unicode="&#xa8;" horiz-adv-x="606" d="M88 1067q0 29 20.5 49.5t49.5 20.5t49 -20.5t20 -49.5t-20 -49.5t-49 -20.5t-49.5 20.5t-20.5 49.5zM399 1067q0 29 20.5 49.5t49.5 20.5t49.5 -20.5t20.5 -49.5t-20.5 -49.5t-49.5 -20.5t-49.5 20.5t-20.5 49.5z" />
<glyph unicode="&#xa9;" horiz-adv-x="1204" d="M70 797q0 146 72 270t196 196t270 72t270 -72t196.5 -196t72.5 -270t-72.5 -270t-196.5 -196.5t-270 -72.5t-270 72.5t-196 196.5t-72 270zM113 799q0 -135 66.5 -249.5t181 -181.5t249.5 -67t249.5 67t181.5 181.5t67 249.5t-67 249.5t-181.5 181t-249.5 66.5 q-101 0 -193 -39.5t-158.5 -106t-106 -158.5t-39.5 -193zM342 807q0 100 70 173t196 73q45 0 86 -11t61 -22t48 -29v-49q-91 70 -195 70q-106 0 -165.5 -61t-59.5 -144t59.5 -145t165.5 -62q118 0 195 80v-49q-77 -72 -195 -72q-125 0 -195.5 74t-70.5 174z" />
<glyph unicode="&#xaa;" horiz-adv-x="784" d="M109 627v71h620v-71h-620zM135 1085q0 109 76.5 186t185.5 77q117 0 193 -86v77h69v-505h-69v75q-76 -86 -193 -86q-108 0 -185 77t-77 185zM205 1085q0 -80 56.5 -137t135.5 -57q80 0 137.5 57.5t57.5 136.5t-57.5 136t-137.5 57q-79 0 -135.5 -56.5t-56.5 -136.5z" />
<glyph unicode="&#xab;" horiz-adv-x="960" d="M74 522l432 432l45 -45l-385 -387l377 -379l-45 -45zM416 522l432 432l47 -45l-387 -387l379 -379l-47 -45z" />
<glyph unicode="&#xac;" horiz-adv-x="669" d="M78 715v63h479v-63h-479zM129 176q0 72 38.5 113.5t82.5 56.5q-40 19 -70 58t-30 98q0 72 48.5 119t120.5 47q71 0 120.5 -47.5t49.5 -118.5q0 -62 -31.5 -100.5t-72.5 -55.5q47 -15 87 -56.5t40 -113.5q0 -83 -54.5 -135.5t-138.5 -52.5q-82 0 -136 52.5t-54 135.5z M182 176q0 -59 39 -96t98 -37q61 0 100.5 37t39.5 96t-39.5 96t-100.5 37q-59 0 -98 -37.5t-39 -95.5zM186 1440l25 57h131v-659h-57v602h-99zM203 502q0 -51 32 -84t84 -33q50 0 83.5 33t33.5 84t-33.5 85t-83.5 34q-52 0 -84 -33.5t-32 -85.5z" />
<glyph unicode="&#xad;" horiz-adv-x="626" d="M102 500v104h422v-104h-422z" />
<glyph unicode="&#xae;" horiz-adv-x="815" d="M84 1104q0 133 95 228t229 95t228.5 -94.5t94.5 -228.5t-95 -229t-228 -95q-134 0 -229 95t-95 229zM115 1104q0 -122 85.5 -207.5t207.5 -85.5q121 0 206.5 85.5t85.5 207.5t-85.5 207.5t-206.5 85.5q-122 0 -207.5 -85.5t-85.5 -207.5zM295 926v372h143q47 0 76 -28.5 t29 -71.5q0 -49 -28.5 -74.5t-76.5 -25.5h-16l121 -172h-37l-119 172h-63v-172h-29zM324 1126h116q74 0 74 72q0 31 -19.5 51.5t-54.5 20.5h-116v-144z" />
<glyph unicode="&#xaf;" horiz-adv-x="751" d="M106 1004v71h580v-71h-580z" />
<glyph unicode="&#xb0;" horiz-adv-x="458" d="M70 1262q0 69 49.5 118.5t118.5 49.5t118.5 -49.5t49.5 -118.5t-49.5 -118.5t-118.5 -49.5t-118.5 49.5t-49.5 118.5zM123 1262q0 -47 34 -81t81 -34t80.5 34t33.5 81t-33.5 80.5t-80.5 33.5t-81 -33.5t-34 -80.5z" />
<glyph unicode="&#xb1;" horiz-adv-x="784" d="M137 301v105h527v-105h-527zM139 682v104h209v199h105v-199h209v-104h-209v-209h-105v209h-209z" />
<glyph unicode="&#xb2;" horiz-adv-x="669" d="M123 831l242 285q94 111 94 203q0 54 -36 87.5t-93 33.5q-58 0 -93 -30.5t-44 -72.5h-56q12 68 60 113t133 45q82 0 134 -48.5t52 -127.5q0 -68 -27.5 -122.5t-78.5 -115.5l-162 -194h272v-56h-397z" />
<glyph unicode="&#xb3;" horiz-adv-x="669" d="M162 981h57q8 -42 41 -66t88 -24q52 0 88.5 40t36.5 99q0 66 -38.5 101.5t-86.5 35.5h-33v58h33q45 0 83 30t38 88q0 49 -35.5 79t-85.5 30q-51 0 -83 -26t-38 -66h-57q5 63 52.5 106t125.5 43q77 0 127.5 -47.5t50.5 -118.5q0 -57 -27 -95t-69 -52q44 -14 72 -57.5 t28 -108.5q0 -82 -52.5 -138t-129.5 -56q-79 0 -128 38.5t-58 106.5z" />
<glyph unicode="&#xb4;" horiz-adv-x="636" d="M143 1024l273 272l57 -57l-272 -272z" />
<glyph unicode="&#xb5;" horiz-adv-x="1021" d="M63 731v115h115v450q0 80 40 134t97 76t125 22q51 0 97.5 -13t86 -39.5t63.5 -73t24 -106.5v-450h256v-115h-256v-731h-115v731h-303v-731h-115v731h-115zM293 846h303v432q0 64 -38.5 99.5t-115.5 35.5q-76 0 -112.5 -37.5t-36.5 -103.5v-426z" />
<glyph unicode="&#xb6;" horiz-adv-x="1128" d="M100 1100q0 112 58.5 196t147.5 125t192 41h262v-1655h-125v924h-137q-80 0 -151.5 24t-126.5 69t-87.5 116.5t-32.5 159.5zM887 -193v1655h125v-1655h-125z" />
<glyph unicode="&#xb7;" horiz-adv-x="552" d="M178 653q0 38 28 66.5t66 28.5t66.5 -28.5t28.5 -66.5t-28.5 -66t-66.5 -28t-66 28t-28 66z" />
<glyph unicode="&#xb8;" horiz-adv-x="481" d="M113 -176q44 -47 96 -47q28 0 41.5 13.5t13.5 35.5q0 24 -21.5 47t-49.5 31l32 96h90l-26 -84q32 -11 56 -43.5t24 -69.5q0 -50 -38 -84t-93 -34q-70 0 -125 51v88z" />
<glyph unicode="&#xb9;" horiz-adv-x="669" d="M205 1442l24 57h131v-659h-57v602h-98z" />
<glyph unicode="&#xba;" horiz-adv-x="784" d="M88 629v71h612v-71h-612zM121 1077q0 111 78 190t190 79q110 0 189 -79.5t79 -189.5t-79 -189t-189 -79q-112 0 -190 78.5t-78 189.5zM190 1075q0 -82 58 -139t141 -57q82 0 139.5 57t57.5 139q0 83 -57.5 141t-139.5 58q-83 0 -141 -58t-58 -141z" />
<glyph unicode="&#xbb;" horiz-adv-x="960" d="M104 909l46 45l434 -432l-424 -424l-47 45l379 379zM449 909l47 45l432 -432l-424 -424l-47 45l379 379z" />
<glyph unicode="&#xbc;" horiz-adv-x="669" d="M82 115l377 542v-485h59v-57h-59v-125h-58v125h-319zM92 715v63h481v-63h-481zM186 172h215v313zM205 1442l24 57h131v-659h-57v602h-98z" />
<glyph unicode="&#xbd;" horiz-adv-x="669" d="M90 715v63h481v-63h-481zM125 2l242 285q94 111 94 202q0 54 -36 87.5t-93 33.5q-58 0 -93.5 -30t-43.5 -72h-56q12 68 60 113t133 45q82 0 134 -49t52 -128q0 -68 -27 -121.5t-79 -115.5l-162 -195h272v-55h-397zM205 1442l24 57h131v-659h-57v602h-98z" />
<glyph unicode="&#xbe;" horiz-adv-x="669" d="M88 715v63h481v-63h-481zM102 115l377 542v-485h60v-57h-60v-125h-57v125h-320zM162 981h57q8 -42 41 -66t88 -24q52 0 88.5 40t36.5 99q0 66 -38.5 101.5t-86.5 35.5h-33v58h33q45 0 83 30t38 88q0 49 -35.5 79t-85.5 30q-51 0 -83 -26t-38 -66h-57q5 63 52.5 106 t125.5 43q77 0 127.5 -47.5t50.5 -118.5q0 -57 -27 -95t-69 -52q44 -14 72 -57.5t28 -108.5q0 -82 -52.5 -138t-129.5 -56q-79 0 -128 38.5t-58 106.5zM207 172h215v313z" />
<glyph unicode="&#xbf;" horiz-adv-x="929" d="M84 109q0 46 15 88.5t33.5 72.5t57.5 67t64.5 57.5t75.5 58.5q168 126 213 177t45 126q0 35 -25.5 58.5t-62.5 23.5q-73 0 -111 -35l-63 92q82 66 182 66q86 0 146.5 -55t60.5 -150q0 -30 -7.5 -58.5t-18 -52.5t-35 -52.5t-44.5 -50t-60.5 -55t-69.5 -56.5t-85 -66 q-34 -25 -52.5 -40t-47.5 -43t-44.5 -51t-27.5 -55.5t-12 -66.5q0 -88 67.5 -141.5t186.5 -53.5q210 0 309 211l100 -64q-128 -272 -409 -272q-180 0 -280.5 87.5t-100.5 232.5zM420 1208q0 35 25.5 59.5t60.5 24.5q34 0 59 -24.5t25 -59.5q0 -34 -25 -59t-59 -25 q-35 0 -60.5 25t-25.5 59z" />
<glyph unicode="&#xc0;" horiz-adv-x="1296" d="M63 0l584 1509l586 -1509h-125l-156 397h-610l-154 -397h-125zM393 522h512l-258 660zM444 1761l58 58l227 -228l-55 -57z" />
<glyph unicode="&#xc1;" horiz-adv-x="1296" d="M63 0l584 1509l586 -1509h-125l-156 397h-610l-154 -397h-125zM393 522h512l-258 660zM547 1583l227 227l47 -49l-225 -227z" />
<glyph unicode="&#xc2;" horiz-adv-x="1296" d="M63 0l584 1509l586 -1509h-125l-156 397h-610l-154 -397h-125zM393 522h512l-258 660zM395 1599l248 246l248 -246l-55 -55l-193 191l-192 -191z" />
<glyph unicode="&#xc3;" horiz-adv-x="1286" d="M63 0l584 1509l586 -1509h-125l-156 397h-610l-154 -397h-125zM315 1622q53 51 84 68q51 28 119 28q62 0 123 -35q3 -2 22.5 -13t25.5 -14t21 -9.5t27.5 -8.5t26.5 -2q59 0 89 14t60 46l58 -54q-30 -30 -47.5 -44.5t-59 -30t-94.5 -15.5q-79 0 -141 43q-6 3 -22 11.5 t-23 12t-19.5 8.5t-23.5 7t-23 2q-30 0 -51.5 -4.5t-41 -18.5t-25.5 -19.5t-27 -28.5zM393 522h512l-258 660z" />
<glyph unicode="&#xc4;" horiz-adv-x="1296" d="M63 0l584 1509l586 -1509h-125l-156 397h-610l-154 -397h-125zM393 522h512l-258 660zM416 1630q0 29 20 49.5t49 20.5t49.5 -20.5t20.5 -49.5t-20.5 -49t-49.5 -20t-49 20t-20 49zM727 1630q0 29 20.5 49.5t49.5 20.5t49 -20.5t20 -49.5t-20 -49t-49 -20t-49.5 20 t-20.5 49z" />
<glyph unicode="&#xc5;" horiz-adv-x="1296" d="M63 0l584 1509l586 -1509h-125l-156 397h-610l-154 -397h-125zM393 522h512l-258 660zM512 1669q0 55 40 95t95 40t95 -40t40 -95t-40 -95t-95 -40t-95 40t-40 95zM555 1669q0 -38 27 -65t65 -27t65 27t27 65t-27 65t-65 27t-65 -27t-27 -65z" />
<glyph unicode="&#xc6;" horiz-adv-x="1478" d="M47 0l635 1462h717v-125h-578v-463h578v-126h-580v-623h580v-125h-705v627h-254l-272 -627h-121zM496 752h198v456z" />
<glyph unicode="&#xc7;" horiz-adv-x="1439" d="M84 727q0 222 99 394.5t264.5 264t367.5 91.5q108 0 187 -8.5t142 -30.5t98.5 -40t98.5 -55v-145q-75 43 -116 63.5t-107.5 45.5t-138.5 35t-164 10q-116 0 -223.5 -43.5t-191 -121.5t-133.5 -198t-50 -262q0 -144 50 -264t133.5 -197t190.5 -119.5t224 -42.5 q99 0 179.5 13.5t144.5 41t106 52.5t96 65v-139q-43 -30 -63 -43t-69 -38.5t-91.5 -37.5t-111 -24t-146.5 -14l-24 -64q28 -14 51.5 -47.5t23.5 -71.5q0 -57 -40 -93t-101 -36q-72 0 -119 47v92q51 -47 97 -47q29 0 45 15.5t16 36.5q0 56 -74 88l31 82q-143 9 -267.5 65 t-216.5 150.5t-145 231.5t-53 298z" />
<glyph unicode="&#xc8;" horiz-adv-x="980" d="M158 0v1462h700v-125h-575v-463h575v-126h-575v-623h575v-125h-700zM330 1761l57 58l227 -228l-57 -57z" />
<glyph unicode="&#xc9;" horiz-adv-x="980" d="M158 0v1462h700v-125h-575v-463h575v-126h-575v-623h575v-125h-700zM430 1591l227 228l58 -58l-228 -227z" />
<glyph unicode="&#xca;" horiz-adv-x="980" d="M158 0v1462h700v-125h-575v-463h575v-126h-575v-623h575v-125h-700zM268 1599l248 246l246 -246l-53 -55l-193 191l-192 -191z" />
<glyph unicode="&#xcb;" horiz-adv-x="980" d="M158 0v1462h700v-125h-575v-463h575v-126h-575v-623h575v-125h-700zM285 1630q0 29 20 49.5t49 20.5t49.5 -20.5t20.5 -49.5t-20.5 -49t-49.5 -20t-49 20t-20 49zM596 1630q0 29 20.5 49.5t49.5 20.5t49 -20.5t20 -49.5t-20 -49t-49 -20t-49.5 20t-20.5 49z" />
<glyph unicode="&#xcc;" horiz-adv-x="466" d="M-2 1761l57 58l228 -228l-58 -57zM170 0v1462h125v-1462h-125z" />
<glyph unicode="&#xcd;" horiz-adv-x="466" d="M170 0v1462h125v-1462h-125zM170 1591l227 228l56 -58l-228 -227z" />
<glyph unicode="&#xce;" horiz-adv-x="466" d="M-10 1599l248 246l247 -246l-55 -55l-192 191l-193 -191zM170 0v1462h125v-1462h-125z" />
<glyph unicode="&#xcf;" horiz-adv-x="466" d="M8 1630q0 29 20.5 49.5t49.5 20.5t49 -20.5t20 -49.5t-20 -49t-49 -20t-49.5 20t-20.5 49zM170 0v1462h125v-1462h-125zM319 1630q0 29 20.5 49.5t49.5 20.5t49.5 -20.5t20.5 -49.5t-20.5 -49t-49.5 -20t-49.5 20t-20.5 49z" />
<glyph unicode="&#xd0;" horiz-adv-x="1404" d="M72 674v104h90v684h487q136 0 256.5 -54.5t208 -150t138.5 -232t51 -294.5t-51 -294.5t-138.5 -232t-208 -150t-256.5 -54.5h-487v674h-90zM287 125h325q247 0 405.5 167.5t158.5 438.5q0 272 -158.5 439t-405.5 167h-325v-559h340v-104h-340v-549z" />
<glyph unicode="&#xd1;" horiz-adv-x="1470" d="M162 0v1473l1050 -1176v1163h125v-1487l-1050 1176v-1149h-125zM412 1622q24 24 36 34.5t38.5 28.5t57.5 25.5t70 7.5q62 0 123 -35q3 -2 22.5 -13t25.5 -14t21 -9.5t27.5 -8.5t26.5 -2q59 0 88 13.5t62 46.5l57 -54q-30 -30 -47.5 -44.5t-60 -30t-95.5 -15.5 q-77 0 -139 43q-6 3 -22 11.5t-23 12t-19.5 8.5t-23.5 7t-23 2q-30 0 -51.5 -4.5t-41 -18.5t-25.5 -19.5t-27 -28.5z" />
<glyph unicode="&#xd2;" horiz-adv-x="1693" d="M94 729q0 209 98.5 381t270.5 270.5t381 98.5q156 0 295.5 -58t239.5 -157.5t158 -239t58 -295.5t-58 -295.5t-158 -238.5t-239.5 -157t-295.5 -58t-295.5 58t-239 157t-157.5 238.5t-58 295.5zM219 729q0 -132 47.5 -248t130.5 -199t199 -130.5t248 -47.5q177 0 320 81 t223.5 224t80.5 320q0 178 -80.5 321t-223 223.5t-320.5 80.5q-132 0 -248 -47.5t-199 -130t-130.5 -198.5t-47.5 -249zM662 1761l57 58l227 -228l-55 -57z" />
<glyph unicode="&#xd3;" horiz-adv-x="1693" d="M94 729q0 209 98.5 381t270.5 270.5t381 98.5q156 0 295.5 -58t239.5 -157.5t158 -239t58 -295.5t-58 -295.5t-158 -238.5t-239.5 -157t-295.5 -58t-295.5 58t-239 157t-157.5 238.5t-58 295.5zM219 729q0 -132 47.5 -248t130.5 -199t199 -130.5t248 -47.5q177 0 320 81 t223.5 224t80.5 320q0 178 -80.5 321t-223 223.5t-320.5 80.5q-132 0 -248 -47.5t-199 -130t-130.5 -198.5t-47.5 -249zM707 1591l227 228l57 -58l-229 -227z" />
<glyph unicode="&#xd4;" horiz-adv-x="1693" d="M94 729q0 209 98.5 381t270.5 270.5t381 98.5q156 0 295.5 -58t239.5 -157.5t158 -239t58 -295.5t-58 -295.5t-158 -238.5t-239.5 -157t-295.5 -58t-295.5 58t-239 157t-157.5 238.5t-58 295.5zM219 729q0 -132 47.5 -248t130.5 -199t199 -130.5t248 -47.5q177 0 320 81 t223.5 224t80.5 320q0 178 -80.5 321t-223 223.5t-320.5 80.5q-132 0 -248 -47.5t-199 -130t-130.5 -198.5t-47.5 -249zM596 1599l248 246l248 -246l-56 -55l-192 191l-193 -191z" />
<glyph unicode="&#xd5;" horiz-adv-x="1693" d="M94 729q0 209 98.5 381t270.5 270.5t381 98.5q156 0 295.5 -58t239.5 -157.5t158 -239t58 -295.5t-58 -295.5t-158 -238.5t-239.5 -157t-295.5 -58t-295.5 58t-239 157t-157.5 238.5t-58 295.5zM219 729q0 -132 47.5 -248t130.5 -199t199 -130.5t248 -47.5q177 0 320 81 t223.5 224t80.5 320q0 178 -80.5 321t-223 223.5t-320.5 80.5q-132 0 -248 -47.5t-199 -130t-130.5 -198.5t-47.5 -249zM502 1632q31 31 49 46.5t61 33t93 17.5q58 0 122 -33q28 -18 40 -25t36 -15.5t47 -8.5q59 0 88.5 13.5t61.5 45.5l57 -53q-29 -29 -48 -44t-60.5 -30.5 t-94.5 -15.5q-77 0 -139 43q-7 3 -22 11.5t-22.5 12t-19.5 8.5t-23 7t-23 2q-14 0 -26 -1t-23 -4t-18.5 -5t-17 -8t-14 -8.5t-13.5 -11t-11.5 -10.5t-12.5 -12l-12 -12z" />
<glyph unicode="&#xd6;" horiz-adv-x="1693" d="M94 729q0 209 98.5 381t270.5 270.5t381 98.5q156 0 295.5 -58t239.5 -157.5t158 -239t58 -295.5t-58 -295.5t-158 -238.5t-239.5 -157t-295.5 -58t-295.5 58t-239 157t-157.5 238.5t-58 295.5zM219 729q0 -132 47.5 -248t130.5 -199t199 -130.5t248 -47.5q177 0 320 81 t223.5 224t80.5 320q0 178 -80.5 321t-223 223.5t-320.5 80.5q-132 0 -248 -47.5t-199 -130t-130.5 -198.5t-47.5 -249zM614 1630q0 29 20.5 49.5t49.5 20.5t49.5 -20.5t20.5 -49.5t-20.5 -49t-49.5 -20t-49.5 20t-20.5 49zM926 1630q0 29 20 49.5t49 20.5t49.5 -20.5 t20.5 -49.5t-20.5 -49t-49.5 -20t-49 20t-20 49z" />
<glyph unicode="&#xd7;" horiz-adv-x="739" d="M82 51l240 371l-238 371l82 53l215 -332l217 332l82 -53l-242 -371l242 -371l-84 -51l-215 332l-215 -332z" />
<glyph unicode="&#xd8;" horiz-adv-x="1693" d="M94 729q0 209 98.5 381t270.5 270.5t381 98.5q198 0 375 -97l112 166l101 -67l-113 -166q130 -100 203 -252t73 -334q0 -156 -58 -295.5t-158 -238.5t-239.5 -157t-295.5 -58q-196 0 -373 94l-117 -170l-100 65l117 172q-130 103 -203.5 255.5t-73.5 332.5zM219 729 q0 -148 58 -273.5t163 -211.5l709 1036q-139 74 -305 74q-132 0 -248 -47.5t-199 -130t-130.5 -198.5t-47.5 -249zM541 176q141 -72 303 -72q177 0 320 81t223.5 224t80.5 320q0 149 -57.5 274t-161.5 211z" />
<glyph unicode="&#xd9;" horiz-adv-x="1146" d="M150 401v1061h126v-1077q0 -141 85 -216t214 -75q128 0 213.5 75t85.5 216v1077h125v-1061q0 -201 -119 -315.5t-305 -114.5t-305.5 115.5t-119.5 314.5zM375 1761l55 58l227 -228l-55 -57z" />
<glyph unicode="&#xda;" horiz-adv-x="1146" d="M150 401v1061h126v-1077q0 -141 85 -216t214 -75q128 0 213.5 75t85.5 216v1077h125v-1061q0 -201 -119 -315.5t-305 -114.5t-305.5 115.5t-119.5 314.5zM492 1591l227 228l57 -58l-229 -227z" />
<glyph unicode="&#xdb;" horiz-adv-x="1146" d="M150 401v1061h126v-1077q0 -141 85 -216t214 -75q128 0 213.5 75t85.5 216v1077h125v-1061q0 -201 -119 -315.5t-305 -114.5t-305.5 115.5t-119.5 314.5zM322 1630l249 246l246 -246l-55 -55l-191 190l-192 -190z" />
<glyph unicode="&#xdc;" horiz-adv-x="1146" d="M150 401v1061h126v-1077q0 -141 85 -216t214 -75q128 0 213.5 75t85.5 216v1077h125v-1061q0 -201 -119 -315.5t-305 -114.5t-305.5 115.5t-119.5 314.5zM340 1630q0 29 20.5 49.5t49.5 20.5t49 -20.5t20 -49.5t-20 -49t-49 -20t-49.5 20t-20.5 49zM651 1630 q0 29 20.5 49.5t49.5 20.5t49.5 -20.5t20.5 -49.5t-20.5 -49t-49.5 -20t-49.5 20t-20.5 49z" />
<glyph unicode="&#xdd;" horiz-adv-x="1021" d="M53 1462h129l332 -600l334 600h131l-404 -721v-741h-124v741zM471 1591l227 228l58 -58l-228 -227z" />
<glyph unicode="&#xde;" horiz-adv-x="985" d="M150 0v1462h126v-321h232q179 0 288 -103t109 -262t-109 -262.5t-288 -103.5h-232v-410h-126zM276 535h232q123 0 197.5 68t74.5 173q0 103 -75 171.5t-197 68.5h-232v-481z" />
<glyph unicode="&#xdf;" horiz-adv-x="1132" d="M53 731v115h115v258q0 180 93.5 269t256.5 89q140 0 240 -96.5t100 -235.5q0 -210 -172 -305q70 -9 132 -37t113 -75t81 -120.5t30 -164.5q0 -191 -108 -309.5t-301 -118.5h-174v115h168q142 0 221.5 91t79.5 224q0 88 -30.5 149.5t-90.5 96.5t-137 50t-181 15v115 q106 0 180 77t74 193q0 94 -63.5 158t-161.5 64q-235 0 -235 -238v-1110h-115v731h-115z" />
<glyph unicode="&#xe0;" horiz-adv-x="1107" d="M94 422q0 119 58.5 220t159.5 159.5t220 58.5q94 0 178.5 -38t145.5 -105v129h115v-846h-115v127q-61 -67 -145 -105t-179 -38q-119 0 -220 58.5t-159.5 159.5t-58.5 220zM211 420q0 -134 95.5 -229t228.5 -95t228 95t95 229t-95 228.5t-228 94.5q-134 0 -229 -95 t-95 -228zM297 1239l55 57l273 -272l-56 -57z" />
<glyph unicode="&#xe1;" horiz-adv-x="1107" d="M94 422q0 119 58.5 220t159.5 159.5t220 58.5q94 0 178.5 -38t145.5 -105v129h115v-846h-115v127q-61 -67 -145 -105t-179 -38q-119 0 -220 58.5t-159.5 159.5t-58.5 220zM211 420q0 -134 95.5 -229t228.5 -95t228 95t95 229t-95 228.5t-228 94.5q-134 0 -229 -95 t-95 -228zM473 1024l270 272l58 -57l-273 -272z" />
<glyph unicode="&#xe2;" horiz-adv-x="1107" d="M94 422q0 119 58.5 220t159.5 159.5t220 58.5q94 0 178.5 -38t145.5 -105v129h115v-846h-115v127q-61 -67 -145 -105t-179 -38q-119 0 -220 58.5t-159.5 159.5t-58.5 220zM211 420q0 -134 95.5 -229t228.5 -95t228 95t95 229t-95 228.5t-228 94.5q-134 0 -229 -95 t-95 -228zM285 1016l247 246l248 -246l-55 -55l-193 190l-192 -190z" />
<glyph unicode="&#xe3;" horiz-adv-x="1107" d="M94 422q0 119 58.5 220t159.5 159.5t220 58.5q94 0 178.5 -38t145.5 -105v129h115v-846h-115v127q-61 -67 -145 -105t-179 -38q-119 0 -220 58.5t-159.5 159.5t-58.5 220zM211 420q0 -134 95.5 -229t228.5 -95t228 95t95 229t-95 228.5t-228 94.5q-134 0 -229 -95 t-95 -228zM219 1096q53 51 84 68q52 28 119 28q55 0 123 -35q5 -3 19.5 -11t20.5 -11.5t18.5 -9.5t21 -8.5t21 -4.5t24.5 -2q58 0 87 13t60 44l60 -51q-30 -30 -49 -45t-60 -30t-94 -15q-70 0 -142 41q-3 2 -15.5 9.5t-16 9.5t-14 7.5t-16 7t-14.5 4.5t-17 4t-17 1 q-15 0 -29 -2t-24 -4t-21 -7.5t-17 -9t-16 -12t-13 -11.5l-13 -13l-13 -13z" />
<glyph unicode="&#xe4;" horiz-adv-x="1107" d="M94 422q0 119 58.5 220t159.5 159.5t220 58.5q94 0 178.5 -38t145.5 -105v129h115v-846h-115v127q-61 -67 -145 -105t-179 -38q-119 0 -220 58.5t-159.5 159.5t-58.5 220zM211 420q0 -134 95.5 -229t228.5 -95t228 95t95 229t-95 228.5t-228 94.5q-134 0 -229 -95 t-95 -228zM311 1067q0 29 20.5 49.5t49.5 20.5t49.5 -20.5t20.5 -49.5t-20.5 -49.5t-49.5 -20.5t-49.5 20.5t-20.5 49.5zM623 1067q0 29 20 49.5t49 20.5t49.5 -20.5t20.5 -49.5t-20.5 -49.5t-49.5 -20.5t-49 20.5t-20 49.5z" />
<glyph unicode="&#xe5;" horiz-adv-x="1107" d="M94 422q0 119 58.5 220t159.5 159.5t220 58.5q94 0 178.5 -38t145.5 -105v129h115v-846h-115v127q-61 -67 -145 -105t-179 -38q-119 0 -220 58.5t-159.5 159.5t-58.5 220zM211 420q0 -134 95.5 -229t228.5 -95t228 95t95 229t-95 228.5t-228 94.5q-134 0 -229 -95 t-95 -228zM375 1094q0 69 49.5 118.5t118.5 49.5t118.5 -49.5t49.5 -118.5t-49.5 -118.5t-118.5 -49.5t-118.5 49.5t-49.5 118.5zM428 1094q0 -47 34 -81t81 -34t80.5 34t33.5 81t-33.5 80.5t-80.5 33.5t-81 -33.5t-34 -80.5z" />
<glyph unicode="&#xe6;" horiz-adv-x="1824" d="M94 422q0 119 58.5 220t159.5 159.5t220 58.5q94 0 178.5 -38t145.5 -105v129h115v-125q123 139 329 139q104 0 189 -37.5t138.5 -99.5t82.5 -138t29 -157q0 -57 -21 -57h-735q16 -114 100.5 -192.5t216.5 -78.5q179 0 279 154l102 -61q-51 -89 -149.5 -149t-231.5 -60 q-100 0 -184.5 36.5t-144.5 102.5v-123h-115v127q-61 -67 -145 -105t-179 -38q-119 0 -220 58.5t-159.5 159.5t-58.5 220zM211 420q0 -134 95.5 -229t228.5 -95t228 95t95 229t-95 228.5t-228 94.5q-134 0 -229 -95t-95 -228zM985 481h629q-5 44 -27 88.5t-60 84t-97.5 64.5 t-129.5 25q-74 0 -135 -26t-98.5 -67t-58.5 -85t-23 -84z" />
<glyph unicode="&#xe7;" horiz-adv-x="890" d="M94 422q0 192 123.5 315t314.5 123q85 0 144 -19.5t123 -58.5v-147q-124 108 -267 108q-138 0 -229.5 -91.5t-91.5 -229.5t91.5 -230t229.5 -92q146 0 267 113v-150q-86 -63 -199 -75l-22 -72q32 -11 55.5 -43.5t23.5 -69.5q0 -50 -38 -84t-93 -34q-70 0 -125 51v88 q44 -47 97 -47q28 0 41.5 13.5t13.5 35.5q0 24 -22 47t-50 31l29 80q-182 8 -299 130.5t-117 307.5z" />
<glyph unicode="&#xe8;" horiz-adv-x="1011" d="M76 422q0 192 123.5 315t314.5 123q104 0 189 -37.5t138.5 -99.5t82 -138t28.5 -157q0 -57 -20 -57h-735q16 -114 100.5 -192.5t216.5 -78.5q179 0 279 154l102 -61q-51 -89 -149.5 -149t-231.5 -60q-190 0 -314 124t-124 314zM199 481h628q-5 44 -27 88.5t-59.5 84 t-97 64.5t-129.5 25q-74 0 -135 -26t-98.5 -67t-58.5 -85t-23 -84zM313 1239l58 57l270 -272l-55 -57z" />
<glyph unicode="&#xe9;" horiz-adv-x="1011" d="M76 422q0 192 123.5 315t314.5 123q104 0 189 -37.5t138.5 -99.5t82 -138t28.5 -157q0 -57 -20 -57h-735q16 -114 100.5 -192.5t216.5 -78.5q179 0 279 154l102 -61q-51 -89 -149.5 -149t-231.5 -60q-190 0 -314 124t-124 314zM199 481h628q-5 44 -27 88.5t-59.5 84 t-97 64.5t-129.5 25q-74 0 -135 -26t-98.5 -67t-58.5 -85t-23 -84zM432 1024l273 272l55 -57l-271 -272z" />
<glyph unicode="&#xea;" horiz-adv-x="1011" d="M76 422q0 192 123.5 315t314.5 123q104 0 189 -37.5t138.5 -99.5t82 -138t28.5 -157q0 -57 -20 -57h-735q16 -114 100.5 -192.5t216.5 -78.5q179 0 279 154l102 -61q-51 -89 -149.5 -149t-231.5 -60q-190 0 -314 124t-124 314zM199 481h628q-5 44 -27 88.5t-59.5 84 t-97 64.5t-129.5 25q-74 0 -135 -26t-98.5 -67t-58.5 -85t-23 -84zM276 1016l248 246l248 -246l-55 -55l-193 190l-192 -190z" />
<glyph unicode="&#xeb;" horiz-adv-x="1011" d="M76 422q0 192 123.5 315t314.5 123q104 0 189 -37.5t138.5 -99.5t82 -138t28.5 -157q0 -57 -20 -57h-735q16 -114 100.5 -192.5t216.5 -78.5q179 0 279 154l102 -61q-51 -89 -149.5 -149t-231.5 -60q-190 0 -314 124t-124 314zM199 481h628q-5 44 -27 88.5t-59.5 84 t-97 64.5t-129.5 25q-74 0 -135 -26t-98.5 -67t-58.5 -85t-23 -84zM293 1067q0 29 20 49.5t49 20.5t49.5 -20.5t20.5 -49.5t-20.5 -49.5t-49.5 -20.5t-49 20.5t-20 49.5zM604 1067q0 29 20.5 49.5t49.5 20.5t49 -20.5t20 -49.5t-20 -49.5t-49 -20.5t-49.5 20.5t-20.5 49.5z " />
<glyph unicode="&#xec;" horiz-adv-x="403" d="M-82 1239l57 57l271 -272l-56 -57zM141 0v846h117v-846h-117z" />
<glyph unicode="&#xed;" horiz-adv-x="403" d="M141 0v846h117v-846h-117zM166 1024l270 272l58 -57l-273 -272z" />
<glyph unicode="&#xee;" horiz-adv-x="442" d="M-25 1016l248 246l248 -246l-55 -55l-193 190l-192 -190zM168 0v846h115v-846h-115z" />
<glyph unicode="&#xef;" horiz-adv-x="403" d="M4 1067q0 29 20.5 49.5t49.5 20.5t49 -20.5t20 -49.5t-20 -49.5t-49 -20.5t-49.5 20.5t-20.5 49.5zM143 0v846h117v-846h-117zM252 1067q0 29 20.5 49.5t49.5 20.5t49 -20.5t20 -49.5t-20 -49.5t-49 -20.5t-49.5 20.5t-20.5 49.5z" />
<glyph unicode="&#xf0;" horiz-adv-x="1026" d="M76 422q0 119 58.5 220t159.5 159.5t220 58.5q176 0 305 -123q-64 277 -287 441l-192 -121l-90 57l194 125q-98 57 -215 98l80 80q122 -38 238 -114l198 122l91 -57l-207 -129q104 -90 172.5 -195t109.5 -262.5t41 -359.5q0 -119 -58.5 -220t-159.5 -159.5t-220 -58.5 t-220 58.5t-159.5 159.5t-58.5 220zM190 420q0 -134 95 -229t229 -95t229 95t95 229q0 133 -95 228t-229 95t-229 -95t-95 -228z" />
<glyph unicode="&#xf1;" horiz-adv-x="1003" d="M158 0v846h114v-119q23 53 87 90t161 37q172 0 262 -94.5t90 -247.5v-514h-116v475q0 126 -58.5 196t-177.5 70q-125 0 -186.5 -75.5t-61.5 -182.5v-481h-114zM186 1096q23 23 36 34.5t39 28.5t57.5 25t70.5 8q55 0 123 -35q3 -2 14.5 -8.5t14.5 -8.5t13.5 -7.5 t15.5 -7.5t14.5 -6t16.5 -5t16 -2.5t18 -1.5q59 0 87.5 13t61.5 44l58 -51q-27 -29 -47.5 -45t-61.5 -30.5t-94 -14.5q-71 0 -139 41q-4 2 -19 11t-19.5 11t-16.5 8t-18.5 7.5t-17 3.5t-20.5 2q-20 0 -38 -3.5t-28.5 -6.5t-25 -13.5t-19 -13.5t-19.5 -18l-17 -17z" />
<glyph unicode="&#xf2;" horiz-adv-x="1026" d="M76 422q0 119 58.5 220t159.5 159.5t220 58.5t220 -58.5t159.5 -159.5t58.5 -220t-58.5 -220t-159.5 -159.5t-220 -58.5t-220 58.5t-159.5 159.5t-58.5 220zM190 420q0 -134 95 -229t229 -95t229 95t95 229q0 133 -95 228t-229 95t-229 -95t-95 -228zM289 1239l55 57 l272 -272l-57 -57z" />
<glyph unicode="&#xf3;" horiz-adv-x="1026" d="M76 422q0 119 58.5 220t159.5 159.5t220 58.5t220 -58.5t159.5 -159.5t58.5 -220t-58.5 -220t-159.5 -159.5t-220 -58.5t-220 58.5t-159.5 159.5t-58.5 220zM190 420q0 -134 95 -229t229 -95t229 95t95 229q0 133 -95 228t-229 95t-229 -95t-95 -228zM418 1024l272 272 l55 -57l-270 -272z" />
<glyph unicode="&#xf4;" horiz-adv-x="1026" d="M76 422q0 119 58.5 220t159.5 159.5t220 58.5t220 -58.5t159.5 -159.5t58.5 -220t-58.5 -220t-159.5 -159.5t-220 -58.5t-220 58.5t-159.5 159.5t-58.5 220zM190 420q0 -134 95 -229t229 -95t229 95t95 229q0 133 -95 228t-229 95t-229 -95t-95 -228zM266 1016l248 246 l246 -246l-53 -55l-193 190l-192 -190z" />
<glyph unicode="&#xf5;" horiz-adv-x="1026" d="M76 422q0 119 58.5 220t159.5 159.5t220 58.5t220 -58.5t159.5 -159.5t58.5 -220t-58.5 -220t-159.5 -159.5t-220 -58.5t-220 58.5t-159.5 159.5t-58.5 220zM190 420q0 -134 95 -229t229 -95t229 95t95 229q0 133 -95 228t-229 95t-229 -95t-95 -228zM195 1096 q24 24 36 34.5t38.5 28.5t57.5 25.5t70 7.5q55 0 123 -35q3 -2 14.5 -8.5t14.5 -8.5t13.5 -7.5t15.5 -7.5t14.5 -6t16.5 -5t16 -2.5t18 -1.5q59 0 88 13t62 44l57 -51q-27 -29 -47.5 -45t-61.5 -30.5t-94 -14.5q-71 0 -139 41q-61 36 -89 41q-11 2 -22 2q-20 0 -38 -3.5 t-28.5 -6.5t-25 -13.5t-19 -13.5t-19.5 -18l-17 -17z" />
<glyph unicode="&#xf6;" horiz-adv-x="1026" d="M76 422q0 119 58.5 220t159.5 159.5t220 58.5t220 -58.5t159.5 -159.5t58.5 -220t-58.5 -220t-159.5 -159.5t-220 -58.5t-220 58.5t-159.5 159.5t-58.5 220zM190 420q0 -134 95 -229t229 -95t229 95t95 229q0 133 -95 228t-229 95t-229 -95t-95 -228zM293 1067 q0 29 20 49.5t49 20.5t49.5 -20.5t20.5 -49.5t-20.5 -49.5t-49.5 -20.5t-49 20.5t-20 49.5zM604 1067q0 29 20.5 49.5t49.5 20.5t49 -20.5t20 -49.5t-20 -49.5t-49 -20.5t-49.5 20.5t-20.5 49.5z" />
<glyph unicode="&#xf7;" horiz-adv-x="741" d="M117 489v105h526v-105h-526zM287 297q0 38 28 66t66 28t66 -28t28 -66t-28 -66t-66 -28t-66 28t-28 66zM287 780q0 38 28 66t66 28t66 -28t28 -66t-28 -66t-66 -28t-66 28t-28 66z" />
<glyph unicode="&#xf8;" horiz-adv-x="1026" d="M76 422q0 119 58.5 220t159.5 159.5t220 58.5q116 0 211 -53l82 115l82 -56l-84 -116q69 -61 108 -146.5t39 -181.5q0 -119 -58.5 -220t-159.5 -159.5t-220 -58.5q-118 0 -215 57l-78 -111l-82 56l80 112q-67 61 -105 145t-38 179zM190 420q0 -133 97 -230l368 521 q-69 32 -141 32q-134 0 -229 -95t-95 -228zM365 133q72 -37 149 -37q134 0 229 95t95 229q0 135 -101 233z" />
<glyph unicode="&#xf9;" horiz-adv-x="878" d="M125 317v529h115v-510q0 -125 47.5 -183.5t150.5 -58.5q104 0 151.5 58.5t47.5 183.5v510h115v-529q0 -161 -83.5 -247t-230.5 -86t-230 86t-83 247zM188 1239l56 57l272 -272l-57 -57z" />
<glyph unicode="&#xfa;" horiz-adv-x="878" d="M125 317v529h115v-510q0 -125 47.5 -183.5t150.5 -58.5q104 0 151.5 58.5t47.5 183.5v510h115v-529q0 -161 -83.5 -247t-230.5 -86t-230 86t-83 247zM379 1024l270 272l58 -57l-273 -272z" />
<glyph unicode="&#xfb;" horiz-adv-x="878" d="M125 317v529h115v-510q0 -125 47.5 -183.5t150.5 -58.5q104 0 151.5 58.5t47.5 183.5v510h115v-529q0 -161 -83.5 -247t-230.5 -86t-230 86t-83 247zM186 1016l248 246l248 -246l-55 -55l-193 190l-192 -190z" />
<glyph unicode="&#xfc;" horiz-adv-x="878" d="M125 317v529h115v-510q0 -125 47.5 -183.5t150.5 -58.5q104 0 151.5 58.5t47.5 183.5v510h115v-529q0 -161 -83.5 -247t-230.5 -86t-230 86t-83 247zM209 1067q0 29 20.5 49.5t49.5 20.5t49 -20.5t20 -49.5t-20 -49.5t-49 -20.5t-49.5 20.5t-20.5 49.5zM520 1067 q0 29 20.5 49.5t49.5 20.5t49 -20.5t20 -49.5t-20 -49.5t-49 -20.5t-49.5 20.5t-20.5 49.5z" />
<glyph unicode="&#xfd;" horiz-adv-x="897" d="M57 846h129l308 -572l260 572h120l-557 -1223h-120l237 522zM420 1024l272 272l58 -57l-273 -272z" />
<glyph unicode="&#xfe;" horiz-adv-x="1099" d="M143 -401v1917h115v-805q62 69 147.5 109t182.5 40q119 0 220 -58.5t159.5 -159.5t58.5 -220t-58.5 -220t-159.5 -159.5t-220 -58.5q-96 0 -182.5 40.5t-147.5 110.5v-536h-115zM264 420q0 -134 95 -229t229 -95q133 0 228 95t95 229t-94.5 228.5t-228.5 94.5t-229 -95 t-95 -228z" />
<glyph unicode="&#xff;" horiz-adv-x="897" d="M57 846h129l308 -572l260 572h120l-557 -1223h-120l237 522zM250 1067q0 29 20 49.5t49 20.5t49.5 -20.5t20.5 -49.5t-20.5 -49.5t-49.5 -20.5t-49 20.5t-20 49.5zM561 1067q0 29 20.5 49.5t49.5 20.5t49 -20.5t20 -49.5t-20 -49.5t-49 -20.5t-49.5 20.5t-20.5 49.5z" />
<glyph unicode="&#x152;" horiz-adv-x="2287" d="M94 729q0 209 98.5 381t270.5 270.5t381 98.5q205 0 373.5 -94t257.5 -244v321h702v-125h-578v-436h578v-125h-578v-651h578v-125h-702v1v1v1v1v1v1v1v1v1v1v1v1v1v1v1v1v1v1v1v1v1v1v1v1v1v1v1v1v1v1v1v1v1v1v1v1v1v1v1v1v1v1v1v1v1v1v1v1v1v1v1v1v1v1v1v1v1v1v1v1v1v1 v2v1v1v1v1v1v1v1v1v2v1v1v1v1v1v2v1v1v1v1v2v1v1v1v2v1v1v1v2v1v1v1v2v1v1v2v1v1v1v2v1v1v2v1v1v2v1v2v1v1v2v1v1v2v1v2v1v1v2v1v2v1v2v1v1v2v1v2v1v2v1v2v1v2v1v2v1v2v1v2v1v2v1v2v1v2v2v1v2v1v2v1v2v2v1v2v1v2v2v1v2v1v2v2v1v2v2v1v2v1v2v2v1v2v2v1v2v2v2v1v2v2v1v2v2v2v1 v2v2v1v2v2v2v1v2v2v2v2v1v2v2v2v1v2v2v2v2v2v1v2v2v2v2v2v1v2v2v2v2v2v2v2v1v2v2v2v2v9q-85 -156 -257 -251t-374 -95q-156 0 -295.5 58t-239 157t-157.5 238.5t-58 295.5zM219 729q0 -132 47.5 -248t130.5 -199t199 -130.5t248 -47.5q177 0 320 81t223.5 224t80.5 320 q0 178 -80.5 321t-223 223.5t-320.5 80.5q-132 0 -248 -47.5t-199 -130t-130.5 -198.5t-47.5 -249z" />
<glyph unicode="&#x153;" horiz-adv-x="1792" d="M76 422q0 119 58.5 220t159.5 159.5t220 58.5q117 0 217 -58t158 -155q55 99 155.5 156t227.5 57q104 0 189 -37.5t138.5 -99.5t82 -138t28.5 -157q0 -57 -20 -57h-736q16 -114 101 -192.5t217 -78.5q178 0 278 154l103 -61q-51 -89 -149.5 -149t-231.5 -60 q-126 0 -226.5 57t-156.5 158q-56 -98 -156.5 -156.5t-218.5 -58.5q-119 0 -220 58.5t-159.5 159.5t-58.5 220zM190 420q0 -134 95 -229t229 -95t229 95t95 229q0 133 -95 228t-229 95t-229 -95t-95 -228zM956 481h629q-5 44 -27 88.5t-59.5 84t-97 64.5t-129.5 25 q-74 0 -135.5 -26t-98.5 -67t-58.5 -85t-23.5 -84z" />
<glyph unicode="&#x178;" horiz-adv-x="1021" d="M53 1462h129l332 -600l334 600h131l-404 -721v-741h-124v741zM309 1630q0 29 20.5 49.5t49.5 20.5t49.5 -20.5t20.5 -49.5t-20.5 -49t-49.5 -20t-49.5 20t-20.5 49zM621 1630q0 29 20 49.5t49 20.5t49.5 -20.5t20.5 -49.5t-20.5 -49t-49.5 -20t-49 20t-20 49z" />
<glyph unicode="&#x2c6;" horiz-adv-x="751" d="M131 1014l248 248l246 -246l-54 -53l-192 192l-195 -194z" />
<glyph unicode="&#x2dc;" horiz-adv-x="835" d="M98 1096q23 23 36 34.5t39 28.5t57.5 25t70.5 8q55 0 123 -35q3 -2 22.5 -13t25.5 -14t21 -9.5t27.5 -8.5t26.5 -2q59 0 87.5 13t61.5 44l58 -51q-27 -29 -47.5 -45t-61.5 -30.5t-94 -14.5q-71 0 -139 41q-61 36 -89 41q-11 2 -22 2q-18 0 -32.5 -1.5t-27.5 -7t-21 -8.5 t-19.5 -12.5t-15 -12.5t-15.5 -15.5t-14 -14.5z" />
<glyph unicode="&#x2000;" horiz-adv-x="938" />
<glyph unicode="&#x2001;" horiz-adv-x="1876" />
<glyph unicode="&#x2002;" horiz-adv-x="938" />
<glyph unicode="&#x2003;" horiz-adv-x="1876" />
<glyph unicode="&#x2004;" horiz-adv-x="625" />
<glyph unicode="&#x2005;" horiz-adv-x="469" />
<glyph unicode="&#x2006;" horiz-adv-x="312" />
<glyph unicode="&#x2007;" horiz-adv-x="312" />
<glyph unicode="&#x2008;" horiz-adv-x="234" />
<glyph unicode="&#x2009;" horiz-adv-x="375" />
<glyph unicode="&#x200a;" horiz-adv-x="104" />
<glyph unicode="&#x2010;" horiz-adv-x="626" d="M102 500v104h422v-104h-422z" />
<glyph unicode="&#x2011;" horiz-adv-x="626" d="M102 500v104h422v-104h-422z" />
<glyph unicode="&#x2012;" horiz-adv-x="626" d="M102 500v104h422v-104h-422z" />
<glyph unicode="&#x2013;" horiz-adv-x="761" d="M86 500v104h596v-104h-596z" />
<glyph unicode="&#x2014;" horiz-adv-x="1263" d="M106 500v104h1065v-104h-1065z" />
<glyph unicode="&#x2018;" horiz-adv-x="333" d="M125 1155v240q0 50 37 96h41q-37 -46 -37 -96v-92h67v-148h-108z" />
<glyph unicode="&#x2019;" horiz-adv-x="323" d="M131 1360v147h109v-239q0 -51 -37 -97h-41q37 46 37 97v92h-68z" />
<glyph unicode="&#x201a;" horiz-adv-x="323" d="M129 102v148h109v-240q0 -50 -37 -96h-41q37 46 37 96v92h-68z" />
<glyph unicode="&#x201c;" horiz-adv-x="585" d="M125 1155v240q0 50 37 96h41q-37 -46 -37 -96v-92h67v-148h-108zM360 1155v240q0 50 37 96h41q-37 -46 -37 -96v-92h68v-148h-109z" />
<glyph unicode="&#x201d;" horiz-adv-x="616" d="M141 1360v147h109v-239q0 -51 -37 -97h-41q37 46 37 97v92h-68zM377 1360v147h108v-239q0 -52 -36 -97h-41q36 45 36 97v92h-67z" />
<glyph unicode="&#x201e;" horiz-adv-x="616" d="M141 102v148h109v-240q0 -50 -37 -96h-41q37 46 37 96v92h-68zM377 102v148h108v-240q0 -51 -36 -96h-41q36 45 36 96v92h-67z" />
<glyph unicode="&#x2022;" horiz-adv-x="712" d="M86 471q0 109 78.5 187.5t187.5 78.5q110 0 189.5 -78.5t79.5 -187.5q0 -110 -79 -188t-190 -78q-109 0 -187.5 78t-78.5 188z" />
<glyph unicode="&#x2026;" horiz-adv-x="1058" d="M94 80q0 38 28 66t66 28t66.5 -28t28.5 -66t-28.5 -66t-66.5 -28t-66 28t-28 66zM446 80q0 38 28.5 66t66.5 28t66 -28t28 -66t-28 -66t-66 -28t-66.5 28t-28.5 66zM801 80q0 38 28 66t66 28t66 -28t28 -66t-28 -66t-66 -28t-66 28t-28 66z" />
<glyph unicode="&#x202f;" horiz-adv-x="375" />
<glyph unicode="&#x2039;" horiz-adv-x="636" d="M74 522l432 432l45 -45l-385 -387l377 -379l-45 -45z" />
<glyph unicode="&#x203a;" horiz-adv-x="626" d="M104 909l46 45l434 -432l-424 -424l-47 45l379 379z" />
<glyph unicode="&#x205f;" horiz-adv-x="469" />
<glyph unicode="&#x2122;" horiz-adv-x="751" d="M76 1421v25h233v-25h-104v-303h-25v303h-104zM317 1120l74 330l105 -279l106 279l70 -330h-27l-49 246l-100 -262l-101 262l-53 -246h-25z" />
<glyph unicode="&#x25fc;" horiz-adv-x="849" d="M0 0v850h850v-850h-850z" />
</font>
</defs>
</svg>
